<?xml version="1.0" encoding="utf-8"?>
<!-- Generator: Adobe Illustrator 21.1.0, SVG Export Plug-In . SVG Version: 6.00 Build 0)  -->
<svg version="1.1" id="Layer_1" xmlns="http://www.w3.org/2000/svg" xmlns:xlink="http://www.w3.org/1999/xlink" x="0px" y="0px"
	 viewBox="0 0 16 16" style="enable-background:new 0 0 16 16;" xml:space="preserve">
<style type="text/css">
	.st0{fill:#FFFFFF;}
</style>
<path class="st0" d="M8,1.2c0.2,0,0.4,0.1,0.5,0.3L14.7,14c0.1,0.2,0.1,0.4,0,0.5c-0.1,0.2-0.3,0.3-0.4,0.3H1.7
	c-0.2,0-0.4-0.1-0.4-0.3c-0.1-0.2-0.1-0.4,0-0.5L7.5,1.5C7.6,1.3,7.8,1.2,8,1.2 M8,0C7.3,0,6.7,0.4,6.5,1L0.2,13.5
	c-0.3,0.5-0.2,1.2,0.1,1.7C0.6,15.7,1.1,16,1.7,16h12.5c0.6,0,1.2-0.3,1.5-0.8c0.3-0.5,0.3-1.1,0.1-1.7L9.5,1C9.3,0.4,8.7,0,8,0"/>
</svg>
