<svg id="Layer_1" data-name="Layer 1" xmlns="http://www.w3.org/2000/svg" viewBox="0 0 16 15"><defs><style>.cls-1{fill:#fff;}</style></defs><title>folderOfFolders_white</title><path class="cls-1" d="M13,14.8A1.2,1.2,0,0,1,11.8,16H1.2A1.2,1.2,0,0,1,0,14.8V5.2A1.2,1.2,0,0,1,1.2,4H4.8A1.78,1.78,0,0,1,6.38,5.14l.24.72A1.78,1.78,0,0,0,8.2,7h3.6A1.2,1.2,0,0,1,13,8.2Z" transform="translate(0 -1)"/><path class="cls-1" d="M10.5,4a.74.74,0,0,1-.66-.47L9.16,1.47A.74.74,0,0,0,8.5,1h-5a.5.5,0,1,0,0,1h4a.74.74,0,0,1,.66.47l.68,2.05A.74.74,0,0,0,9.5,5h5a.5.5,0,0,1,.5.5v7a.5.5,0,0,0,.5.5h0a.5.5,0,0,0,.5-.5v-8a.5.5,0,0,0-.5-.5Z" transform="translate(0 -1)"/></svg>