<svg id="Layer_1" data-name="Layer 1" xmlns="http://www.w3.org/2000/svg" viewBox="0 0 15 14"><title>remove</title><path d="M13.48,12l2.22-2.22a1,1,0,0,0-1.48-1.48L12,10.52,9.78,8.31A1,1,0,0,0,8.31,9.78L10.52,12,8.31,14.22a1,1,0,1,0,1.48,1.48L12,13.48l2.22,2.22a1,1,0,1,0,1.48-1.48Z" transform="translate(-1 -2)"/><path d="M7.35,13.26,8.61,12,7.35,10.74A2.4,2.4,0,0,1,9,6.65H9a2.38,2.38,0,0,1,1.69.7L12,8.61l1.26-1.26A2.37,2.37,0,0,1,15,6.65h0V6.2A1.2,1.2,0,0,0,13.8,5H9.2A1.78,1.78,0,0,1,7.62,3.86l-.24-.72A1.78,1.78,0,0,0,5.8,2H2.2A1.2,1.2,0,0,0,1,3.2v9.6A1.2,1.2,0,0,0,2.2,14H6.85A2.39,2.39,0,0,1,7.35,13.26Z" transform="translate(-1 -2)"/></svg>