<?xml version="1.0" encoding="utf-8"?>
<!-- Generator: Adobe Illustrator 21.1.0, SVG Export Plug-In . SVG Version: 6.00 Build 0)  -->
<svg version="1.1" id="Layer_1" xmlns="http://www.w3.org/2000/svg" xmlns:xlink="http://www.w3.org/1999/xlink" x="0px" y="0px"
	 viewBox="0 0 16 16" style="enable-background:new 0 0 16 16;" xml:space="preserve">
<style type="text/css">
	.st0{display:none;fill:#66A19F;}
	.st1{fill:#FFFFFF;}
	.st2{display:none;opacity:0.2;fill:#E94E47;enable-background:new    ;}
</style>
<rect x="-8" y="-262" class="st0" width="87" height="2382"/>
<path class="st1" d="M10.8,2.3L8.6,0.2C8.4,0.1,8.2,0,8,0S7.6,0.1,7.4,0.2L5.2,2.3C5,2.6,4.9,2.7,5.1,3s0.4,0.4,0.7,0.4h1.6V6H8h0.6
	V3.4h1.6c0.3,0,0.6-0.1,0.7-0.4C11.1,2.7,11,2.6,10.8,2.3z"/>
<path class="st1" d="M5.2,13.7l2.2,2.1C7.6,15.9,7.8,16,8,16s0.4-0.1,0.6-0.2l2.2-2.1c0.2-0.2,0.3-0.4,0.2-0.7s-0.4-0.4-0.7-0.4H8.6
	V10H8H7.4v2.6H5.8c-0.3,0-0.6,0.1-0.7,0.4C4.9,13.3,5,13.4,5.2,13.7z"/>
<path class="st1" d="M2.3,5.2L0.2,7.4C0.1,7.6,0,7.8,0,8s0.1,0.4,0.2,0.6l2.1,2.2C2.6,11,2.7,11.1,3,10.9c0.3-0.1,0.4-0.4,0.4-0.7
	V8.6H6V8V7.4H3.4V5.8c0-0.3-0.1-0.6-0.4-0.7C2.7,4.9,2.6,5,2.3,5.2z"/>
<path class="st1" d="M13.7,10.8l2.1-2.2C15.9,8.4,16,8.2,16,8s-0.1-0.4-0.2-0.6l-2.1-2.2C13.4,5,13.3,4.9,13,5.1
	c-0.3,0.1-0.4,0.4-0.4,0.7v1.6H10V8v0.6h2.6v1.6c0,0.3,0.1,0.6,0.4,0.7C13.3,11.1,13.4,11,13.7,10.8z"/>
<rect class="st2" width="16" height="16"/>
</svg>
