<?xml version="1.0" encoding="UTF-8" standalone="no"?>
<!-- Generator: Adobe Illustrator 16.0.2, SVG Export Plug-In . SVG Version: 6.00 Build 0)  -->

<svg
   xmlns:dc="http://purl.org/dc/elements/1.1/"
   xmlns:cc="http://creativecommons.org/ns#"
   xmlns:rdf="http://www.w3.org/1999/02/22-rdf-syntax-ns#"
   xmlns:svg="http://www.w3.org/2000/svg"
   xmlns="http://www.w3.org/2000/svg"
   xmlns:sodipodi="http://sodipodi.sourceforge.net/DTD/sodipodi-0.dtd"
   xmlns:inkscape="http://www.inkscape.org/namespaces/inkscape"
   version="1.1"
   id="Layer_1"
   x="0px"
   y="0px"
   width="16px"
   height="16px"
   viewBox="0.5 0.5 16 16"
   enable-background="new 0.5 0.5 16 16"
   xml:space="preserve"
   sodipodi:docname="cell-from.svg"
   inkscape:version="0.92.3 (2405546, 2018-03-11)"><metadata
   id="metadata4159"><rdf:RDF><cc:Work
       rdf:about=""><dc:format>image/svg+xml</dc:format><dc:type
         rdf:resource="http://purl.org/dc/dcmitype/StillImage" /><dc:title></dc:title></cc:Work></rdf:RDF></metadata><defs
   id="defs4157"><marker
     inkscape:stockid="Arrow2Mend"
     orient="auto"
     refY="0.0"
     refX="0.0"
     id="Arrow2Mend"
     style="overflow:visible;"
     inkscape:isstock="true"><path
       id="path5260"
       style="fill-rule:evenodd;stroke-width:0.625;stroke-linejoin:round;stroke:#ffffff;stroke-opacity:1;fill:#89ba17;fill-opacity:1"
       d="M 8.7185878,4.0337352 L -2.2072895,0.016013256 L 8.7185884,-4.0017078 C 6.9730900,-1.6296469 6.9831476,1.6157441 8.7185878,4.0337352 z "
       transform="scale(0.6) rotate(180) translate(0,0)" /></marker><marker
     inkscape:stockid="Arrow2Lend"
     orient="auto"
     refY="0.0"
     refX="0.0"
     id="Arrow2Lend"
     style="overflow:visible;"
     inkscape:isstock="true"><path
       id="path5254"
       style="fill-rule:evenodd;stroke-width:0.625;stroke-linejoin:round;stroke:#ffffff;stroke-opacity:1;fill:#89ba17;fill-opacity:1"
       d="M 8.7185878,4.0337352 L -2.2072895,0.016013256 L 8.7185884,-4.0017078 C 6.9730900,-1.6296469 6.9831476,1.6157441 8.7185878,4.0337352 z "
       transform="scale(1.1) rotate(180) translate(1,0)" /></marker></defs><sodipodi:namedview
   pagecolor="#ffffff"
   bordercolor="#666666"
   borderopacity="1"
   objecttolerance="10"
   gridtolerance="10"
   guidetolerance="10"
   inkscape:pageopacity="0"
   inkscape:pageshadow="2"
   inkscape:window-width="1920"
   inkscape:window-height="1053"
   id="namedview4155"
   showgrid="true"
   inkscape:zoom="53.75"
   inkscape:cx="8"
   inkscape:cy="8"
   inkscape:window-x="1911"
   inkscape:window-y="-9"
   inkscape:window-maximized="1"
   inkscape:current-layer="Layer_1"><inkscape:grid
     type="xygrid"
     id="grid4198" /></sodipodi:namedview>


<path
   sodipodi:type="star"
   style="fill:#808080;fill-opacity:1;stroke:#ffffff;stroke-width:0;stroke-linecap:square;stroke-linejoin:round;stroke-miterlimit:4;stroke-dasharray:none;stroke-opacity:1;paint-order:normal"
   id="path5229"
   sodipodi:sides="6"
   sodipodi:cx="-2.7954545"
   sodipodi:cy="4.1363635"
   sodipodi:r1="2.1956239"
   sodipodi:r2="1.9014661"
   sodipodi:arg1="1.0471976"
   sodipodi:arg2="1.5707963"
   inkscape:flatsided="true"
   inkscape:rounded="-3.46945e-018"
   inkscape:randomized="0"
   d="m -1.6976427,6.0378296 -2.1956238,-1e-7 -1.0978119,-1.9014661 1.0978121,-1.901466 2.1956238,1e-7 1.09781187,1.9014661 z"
   transform="matrix(3.18816,0,0,3.6813701,16.412356,-6.7274848)" /><g
   inkscape:groupmode="layer"
   id="layer1"
   inkscape:label="Layer 1"><g
     id="g4144"
     transform="translate(2.451163,3.5581395)"
     style="fill:#89ba17;fill-opacity:1">
	
	<polygon
   points="1.551,11.055 1.756,11.239 "
   id="polygon4140"
   style="fill:#89ba17;fill-opacity:1" />
	
</g><circle
     class="cls-2"
     cx="-5.5299997"
     cy="9.4700003"
     r="4.0300002"
     id="circle4229"
     style="fill:#000000;fill-opacity:0" /></g><g
   inkscape:groupmode="layer"
   id="layer2"
   inkscape:label="Layer 2"><path
     d="m 5.7563575,9.237526 -0.204992,-0.185335 2.462917,2.221012 c 0.249992,0.224405 0.624979,0.292528 0.947967,0.170308 0.32499,-0.122221 0.537984,-0.407737 0.537984,-0.72531 V 9.54408 9.5 H 16.5 V 7.496381 H 9.5002335 V 7.452291 6.2781688 c -10e-4,-0.212384 -0.09601,-0.411743 -0.254991,-0.557006 -0.07801,-0.06913 -0.174994,-0.12723 -0.282993,-0.168303 -0.322988,-0.121221 -0.700974,-0.0541 -0.947967,0.170308 L 5.7543565,7.759845 c -0.339987,0.303548 -0.338987,1.171115 0.0021,1.477669 z"
     id="path4138"
     inkscape:connector-curvature="0"
     style="fill:#000000;fill-opacity:1;stroke:#ffffff;stroke-width:2;stroke-linecap:butt;stroke-linejoin:miter;stroke-miterlimit:4;stroke-dasharray:none;stroke-opacity:1;paint-order:fill markers stroke" /><path
     d="M 5.756124,9.237526 5.551132,9.052191 8.014049,11.273203 c 0.249992,0.224405 0.624979,0.292528 0.947967,0.170308 C 9.287006,11.32129 9.5,11.035774 9.5,10.718201 V 9.54408 9.5 h 6.999766 V 7.496381 H 9.5 V 7.452291 6.2781688 C 9.499,6.0657848 9.40399,5.8664258 9.245009,5.7211628 9.166999,5.6520328 9.070015,5.5939328 8.962016,5.5528598 8.639028,5.4316388 8.261042,5.4987598 8.014049,5.7231678 L 5.754123,7.759845 C 5.414136,8.063393 5.415136,8.93096 5.756223,9.237514 Z"
     id="path4138-4"
     inkscape:connector-curvature="0"
     style="fill:#000000;fill-opacity:1;stroke:#ffffff;stroke-width:0;stroke-linecap:butt;stroke-linejoin:miter;stroke-miterlimit:4;stroke-dasharray:none;stroke-opacity:1;paint-order:fill markers stroke" /></g><path
   sodipodi:type="star"
   style="fill:#ffffff;fill-opacity:1;stroke:#ffffff;stroke-width:0.5;stroke-miterlimit:4;stroke-dasharray:none;stroke-opacity:1"
   id="path5096"
   sodipodi:sides="6"
   sodipodi:cx="-39.5"
   sodipodi:cy="-23.5"
   sodipodi:r1="26.172504"
   sodipodi:r2="22.666054"
   sodipodi:arg1="0.75837771"
   sodipodi:arg2="1.2819765"
   inkscape:flatsided="true"
   inkscape:rounded="-3.46945e-018"
   inkscape:randomized="0"
   d="m -20.5,-5.5000002 -25.088457,7.4544827 -19,-17.9999995 L -58.5,-41.5 l 25.088457,-7.454482 19,17.999999 z" /></svg>