<?xml version="1.0" encoding="utf-8"?>
<!-- Generator: Adobe Illustrator 21.1.0, SVG Export Plug-In . SVG Version: 6.00 Build 0)  -->
<svg version="1.1" id="Layer_1" xmlns="http://www.w3.org/2000/svg" xmlns:xlink="http://www.w3.org/1999/xlink" x="0px" y="0px"
	 viewBox="0 0 16 16" style="enable-background:new 0 0 16 16;" xml:space="preserve">
<style type="text/css">
	.st0{display:none;fill:#66A19F;}
	.st1{fill:#FFFFFF;}
	.st2{display:none;opacity:0.2;fill:#E94E47;enable-background:new    ;}
</style>
<rect x="-8" y="-38" class="st0" width="87" height="2382"/>
<path class="st1" d="M13,1.7C11.6,0.6,9.8,0,8,0C3.6,0,0,3.6,0,8s3.6,8,8,8s8-3.6,8-8C16,5.6,14.9,3.3,13,1.7z M3.6,13.4l0.1-0.3
	c0,0,0.8-1.5,0.7-1.8s-0.4-2-1-1.9C1.2,10,1,8.4,1,8.1C1,8,1,8,1,8c0-0.1,0-0.3,0-0.4c0.6,0,1.4,0.1,1.7,0.3c0.5,0.4,1.9,0.1,2.7,0
	c0,0,0.7-1.5,1.6-1.8c0,0,0.4-0.8-0.2-1.4c0,0-1-0.8-1.5-0.3C4.8,5.1,4.8,5.3,4.4,4.6s0.4-0.8,0-1.5C4.2,2.8,4,2.5,3.8,2.4
	C5,1.5,6.4,1,8,1c0.1,0,0.2,0,0.4,0c0,0.3,0,0.7,0,1C8.5,2.6,9,3.2,9.7,2.2c0.3-0.4,0.1-0.7-0.1-1c0.3,0.1,0.6,0.1,0.8,0.3l0,0.1
	c0,0,0.3,0.3-0.2,0.9C9.9,2.9,8.5,3.6,8.9,4.3c0.5,0.9,2.4-0.5,3.6,0.6c0.9,0.8,2.3,2.3,2,1.2c-0.2-0.6-0.2-0.9-0.1-1
	C14.8,6,15,7,15,8c0,0.8-0.1,1.5-0.4,2.3c-0.1-0.2-0.6-0.6-0.9-1c-0.4-0.4-0.7-1.2-0.8-1.6s-0.7-0.8-1.1-0.8s-0.9-0.2-0.9-0.2
	s-0.2-0.5-0.6-0.4S9,6.8,8.8,7.4c0,0-0.7,1.9,0.5,2.6s2-0.6,1.7,2.9c0,0-0.2,1,0.1,1.4C10.2,14.7,9.1,15,8,15
	C6.3,15,4.8,14.4,3.6,13.4z"/>
<rect y="0" class="st2" width="16" height="16"/>
</svg>
