<?xml version="1.0" encoding="utf-8"?>
<!-- Generator: Adobe Illustrator 21.1.0, SVG Export Plug-In . SVG Version: 6.00 Build 0)  -->
<svg version="1.1" id="Layer_1" xmlns="http://www.w3.org/2000/svg" xmlns:xlink="http://www.w3.org/1999/xlink" x="0px" y="0px"
	 viewBox="0 0 16 16" style="enable-background:new 0 0 16 16;" xml:space="preserve">
<style type="text/css">
	.st0{display:none;fill:#66A19F;}
	.st1{fill:#FFFFFF;}
	.st2{display:none;opacity:0.2;fill:#E94E47;enable-background:new    ;}
</style>
<rect x="-8" y="-358" class="st0" width="87" height="2382"/>
<path class="st1" d="M3.3,6.5c0.2,0.2,0.5,0.3,0.8,0.2c0.1,0,0.2-0.1,0.2-0.2C4.5,6.4,4.6,6.2,4.6,6V4.6H10V3.1H4.6V1.7
	c0-0.3-0.2-0.6-0.5-0.7C3.9,0.9,3.6,1,3.3,1.2L1.2,3.3c-0.3,0.3-0.3,0.8,0,1.1L3.3,6.5z"/>
<path class="st1" d="M4.6,9.8c0-0.3-0.2-0.6-0.5-0.7C3.9,8.9,3.6,9,3.3,9.2l-2.1,2.1c-0.3,0.3-0.3,0.8,0,1.1l2.1,2.1
	c0.2,0.2,0.5,0.3,0.8,0.2c0.1,0,0.2-0.1,0.2-0.2c0.1-0.1,0.2-0.3,0.2-0.5v-1.4H10v-1.5H4.6V9.8z"/>
<path class="st1" d="M13.8,7.3l-2.1-2.1c-0.2-0.2-0.5-0.3-0.8-0.2c-0.3,0.1-0.5,0.4-0.5,0.7v1.4H5v1.5h5.4V10c0,0.3,0.2,0.6,0.5,0.7
	c0.3,0.1,0.6,0.1,0.8-0.2l2.1-2.1C14.1,8.1,14.1,7.6,13.8,7.3z"/>
<rect class="st2" width="16" height="16"/>
</svg>
