<svg id="Layer_1" data-name="Layer 1" xmlns="http://www.w3.org/2000/svg" viewBox="0 0 15 14"><title>addToFolder_black</title><path d="M6.75,12A2.25,2.25,0,0,1,9,9.75h.75V9a2.25,2.25,0,0,1,4.5,0v.75H15V6.2A1.2,1.2,0,0,0,13.8,5H9.2A1.78,1.78,0,0,1,7.62,3.86l-.24-.72A1.78,1.78,0,0,0,5.8,2H2.2A1.2,1.2,0,0,0,1,3.2v9.6A1.2,1.2,0,0,0,2.2,14H8A2.25,2.25,0,0,1,6.75,12Z" transform="translate(-1 -2)"/><path d="M15,11H13V9a1,1,0,0,0-2,0v2H9a1,1,0,1,0,0,2h2v2a1,1,0,0,0,2,0V13h2a1,1,0,1,0,0-2Zm-1,1h0Z" transform="translate(-1 -2)"/></svg>