<?xml version="1.0" encoding="UTF-8" standalone="no"?>
<svg
   xmlns:dc="http://purl.org/dc/elements/1.1/"
   xmlns:cc="http://creativecommons.org/ns#"
   xmlns:rdf="http://www.w3.org/1999/02/22-rdf-syntax-ns#"
   xmlns:svg="http://www.w3.org/2000/svg"
   xmlns="http://www.w3.org/2000/svg"
   xmlns:sodipodi="http://sodipodi.sourceforge.net/DTD/sodipodi-0.dtd"
   xmlns:inkscape="http://www.inkscape.org/namespaces/inkscape"
   id="Layer_1"
   data-name="Layer 1"
   viewBox="0 0 15.406322 13.212048"
   version="1.1"
   sodipodi:docname="folderSearch_white.svg"
   width="15.406322"
   height="13.212049"
   inkscape:version="0.92.3 (2405546, 2018-03-11)">
  <metadata
     id="metadata11">
    <rdf:RDF>
      <cc:Work
         rdf:about="">
        <dc:format>image/svg+xml</dc:format>
        <dc:type
           rdf:resource="http://purl.org/dc/dcmitype/StillImage" />
        <dc:title>folder_black_16px</dc:title>
      </cc:Work>
    </rdf:RDF>
  </metadata>
  <defs
     id="defs9" />
  <sodipodi:namedview
     pagecolor="#ffffff"
     bordercolor="#666666"
     borderopacity="1"
     objecttolerance="10"
     gridtolerance="10"
     guidetolerance="10"
     inkscape:pageopacity="0"
     inkscape:pageshadow="2"
     inkscape:window-width="2304"
     inkscape:window-height="1202"
     id="namedview7"
     showgrid="true"
     inkscape:snap-global="false"
     inkscape:zoom="48.845838"
     inkscape:cx="8.4916755"
     inkscape:cy="5.6859254"
     inkscape:window-x="2293"
     inkscape:window-y="-11"
     inkscape:window-maximized="1"
     inkscape:current-layer="Layer_1">
    <inkscape:grid
       type="xygrid"
       id="grid2815" />
  </sodipodi:namedview>
  <title
     id="title2">folder_black_16px</title>
  <rect
     style="fill:none"
     x="-20"
     y="3.3389831"
     width="16"
     height="16"
     id="rect1554" />
  <g
     id="g2170"
     transform="matrix(1.064073,0,0,1.064073,0.55303685,-1.007207)" />
  <path
     style="fill:#000000"
     d="m 11.980469,12 c -0.0013,-0.0018 -0.0024,-0.0041 -0.0039,-0.0059 -0.009,0.0038 -0.02025,0.0021 -0.0293,0.0059 z"
     id="path2803"
     inkscape:connector-curvature="0" />
  <path
     style="fill:none"
     d="M 14,6.4550781 C 13.803168,6.0658338 13.581542,5.688097 13.275391,5.3828125 12.906701,5.0151668 12.467325,4.7174674 11.980469,4.5117188 11.493613,4.3059701 10.959341,4.1933594 10.398438,4.1933594 c -0.5610997,0 -1.0972868,0.1126107 -1.5839849,0.3183594 C 8.327755,4.7174674 7.8898656,5.0151668 7.5214844,5.3828125 7.1531032,5.7504582 6.854586,6.1881371 6.6484375,6.6738281 6.442289,7.1595192 6.328125,7.6940214 6.328125,8.2539062 c 0,0.5596901 0.114164,1.0926654 0.3203125,1.578125 0.2061485,0.4854598 0.5046657,0.9235808 0.8730469,1.2910158 0.3683812,0.367434 0.8062706,0.665479 1.2929687,0.871094 0.009,0.0038 0.020264,0.0021 0.029297,0.0059 h 3.1035159 c 0.009,-0.0037 0.02028,-0.0021 0.0293,-0.0059 0.0015,0.0017 0.0026,0.004 0.0039,0.0059 h 0.820312 A 1.2,1.2 0 0 0 14,10.800781 Z"
     id="path2801"
     inkscape:connector-curvature="0" />
  <path
     style="fill:#ffffff"
     d="M 1.1992188,0 A 1.2,1.2 0 0 0 0,1.1992188 V 10.800781 A 1.2,1.2 0 0 0 1.1992188,12 H 8.84375 C 8.83472,11.9963 8.823453,11.9979 8.814453,11.9941 8.327755,11.788526 7.8898656,11.490481 7.5214844,11.123047 7.1531032,10.755612 6.854586,10.317491 6.6484375,9.8320312 6.442289,9.3465716 6.328125,8.8135963 6.328125,8.2539062 c 0,-0.5598848 0.114164,-1.094387 0.3203125,-1.5800781 C 6.854586,6.1881371 7.1531032,5.7504582 7.5214844,5.3828125 7.8898656,5.0151668 8.327755,4.7174674 8.8144531,4.5117188 9.3011512,4.3059701 9.8373383,4.1933594 10.398438,4.1933594 c 0.560903,0 1.095175,0.1126107 1.582031,0.3183594 0.486856,0.2057486 0.926232,0.503448 1.294922,0.8710937 C 13.581542,5.688097 13.803168,6.0658338 14,6.4550781 V 4.1992188 A 1.2,1.2 0 0 0 12.800781,3 H 8.1992188 A 1.78,1.78 0 0 1 6.6191406,1.859375 L 6.3808594,1.140625 A 1.78,1.78 0 0 0 4.8007812,0 Z"
     id="path4"
     inkscape:connector-curvature="0" />
  <path
     inkscape:connector-curvature="0"
     d="M 15.18045,11.86863 13.313286,9.9655027 c -0.06808,-0.06924 -0.148954,-0.1181091 -0.232159,-0.1576721 0.268234,-0.454401 0.432898,-0.976874 0.432898,-1.5418184 0,-1.6837818 -1.369681,-3.0539633 -3.053563,-3.0539633 -1.6844627,0 -3.0541427,1.3701815 -3.0541427,3.0539633 0,1.6837815 1.36968,3.0539638 3.0541427,3.0539638 0.571961,0 1.10203,-0.168146 1.559947,-0.442763 0.03491,0.06516 0.06692,0.13149 0.121607,0.187345 l 1.866583,1.903127 c 0.159428,0.16291 0.372967,0.244364 0.585926,0.244364 0.202484,0 0.404387,-0.07331 0.562069,-0.221091 0.322928,-0.303709 0.334564,-0.805818 0.02386,-1.122328 z M 8.2785153,8.26543 c 0,-1.2026176 0.978676,-2.1812359 2.1813647,-2.1812359 1.20269,0 2.180784,0.9786183 2.180784,2.1812359 0,1.2026186 -0.978094,2.181237 -2.180784,2.181237 -1.2026887,0 -2.1813647,-0.9780364 -2.1813647,-2.181237 z"
     id="path1552"
     style="fill:#ffffff;stroke-width:0.58183509" />
</svg>
