<?xml version="1.0" encoding="utf-8"?>
<!-- Generator: Adobe Illustrator 18.1.1, SVG Export Plug-In . SVG Version: 6.00 Build 0)  -->
<svg version="1.1" id="Layer_1" xmlns="http://www.w3.org/2000/svg" xmlns:xlink="http://www.w3.org/1999/xlink" x="0px" y="0px"
	 viewBox="0 0 16 16" enable-background="new 0 0 16 16" xml:space="preserve">
<path fill="#010101" d="M15,3.5l-1.8,1.7l-2.5-2.5L12.5,1l-0.4-1C9.9,0,8.1,1.7,8.1,3.9c0,0.6,0.2,1.2,0.4,1.8l0,0l-8.5,8.2l0,0
	C0,14,0,14.2,0,14.4c0,0.5,0.4,1.1,0.9,1.4c0.5,0.2,1,0.1,1.2,0.1l8.1-8.6l0,0c0.5,0.3,1.2,0.4,1.8,0.4C14.2,7.8,16,6,16,3.9L15,3.5
	z M1.7,15C1.3,15,1,14.7,1,14.3s0.3-0.7,0.7-0.7s0.7,0.3,0.7,0.7S2.1,15,1.7,15z"/>
<path fill="#010101" d="M14.8,13c0,0-0.1-0.1-0.1-0.1l-4.4-4.4L9.4,9.3l-5-4.8L4.3,3.2L2.4,2L0.8,3.6L2,5.4l1.3,0.1l5.1,4.8l-1.1,1
	l4.5,4.5l0.1-0.1l-0.1,0.1c0.5-0.1,0.8-0.3,1.1-0.5c0.2-0.1,0.6-0.3,0.9-0.7c0.2-0.2,0.3-0.4,0.6-0.9C14.8,13.2,14.8,13,14.8,13z
	 M12,14.8l-3.5-3.4L9,10.9l3.6,3.5L12,14.8z M13.2,13.8l-3.5-3.5l0.5-0.5l3.4,3.4L13.2,13.8z"/>
</svg>
