<?xml version="1.0" encoding="utf-8"?>
<!-- Generator: Adobe Illustrator 21.1.0, SVG Export Plug-In . SVG Version: 6.00 Build 0)  -->
<svg version="1.1" id="Layer_1" xmlns="http://www.w3.org/2000/svg" xmlns:xlink="http://www.w3.org/1999/xlink" x="0px" y="0px"
	 viewBox="0 0 16 16" style="enable-background:new 0 0 16 16;" xml:space="preserve">
<style type="text/css">
	.st0{fill:#FFFFFF;}
</style>
<path class="st0" d="M9.7,3.7C9.7,2.7,8.9,2,8,2C7,2,6.2,2.7,6.2,3.7S7,5.5,8,5.5C8.9,5.5,9.7,4.7,9.7,3.7"/>
<path class="st0" d="M4,6.2c-0.2,0-0.3-0.1-0.4-0.2C3.3,5.4,3.2,4.8,3.2,4.2c0-0.9,0.3-1.9,0.9-2.6c0.2-0.2,0.4-0.2,0.6-0.1
	c0.2,0.1,0.2,0.4,0.1,0.6C4.3,2.7,4,3.4,4,4.2c0,0.5,0.1,1,0.3,1.4c0.1,0.2,0,0.5-0.2,0.6C4.1,6.1,4,6.2,4,6.2"/>
<path class="st0" d="M1,7.6c-0.2,0-0.3-0.1-0.4-0.2C0.2,6.5,0,5.5,0,4.5c0-1.6,0.5-3.1,1.5-4.3C1.7,0,2,0,2.1,0.1
	c0.2,0.2,0.2,0.4,0.1,0.6C1.3,1.8,0.9,3.1,0.9,4.5C0.9,5.4,1,6.2,1.4,7c0.1,0.2,0,0.5-0.2,0.6C1.2,7.6,1.1,7.6,1,7.6"/>
<path class="st0" d="M12,6.2c0.2,0,0.3-0.1,0.4-0.2c0.3-0.6,0.4-1.1,0.4-1.8c0-0.9-0.3-1.9-0.9-2.6c-0.1-0.2-0.4-0.2-0.6-0.1
	c-0.2,0.1-0.2,0.4-0.1,0.6c0.5,0.6,0.7,1.3,0.7,2.1c0,0.5-0.1,1-0.3,1.4c-0.1,0.2,0,0.5,0.2,0.6C11.9,6.1,11.9,6.2,12,6.2"/>
<path class="st0" d="M14.9,7.6c0.2,0,0.3-0.1,0.4-0.2C15.8,6.5,16,5.5,16,4.5c0-1.6-0.5-3.1-1.5-4.3C14.3,0,14,0,13.8,0.1
	c-0.2,0.2-0.2,0.4-0.1,0.6c0.9,1.1,1.3,2.4,1.3,3.8c0,0.9-0.2,1.7-0.6,2.5c-0.1,0.2,0,0.5,0.2,0.6C14.8,7.6,14.9,7.6,14.9,7.6"/>
<path class="st0" d="M7.4,15.4V4.5C7.4,4.2,7.7,4,8,4s0.6,0.3,0.6,0.6v10.9C8.5,15.7,8.3,16,8,16S7.4,15.7,7.4,15.4"/>
</svg>
