<?xml version="1.0" encoding="utf-8"?>
<!-- Generator: Adobe Illustrator 21.1.0, SVG Export Plug-In . SVG Version: 6.00 Build 0)  -->
<svg version="1.1" id="Layer_1" xmlns="http://www.w3.org/2000/svg" xmlns:xlink="http://www.w3.org/1999/xlink" x="0px" y="0px"
	 viewBox="0 0 16 16" style="enable-background:new 0 0 16 16;" xml:space="preserve">
<style type="text/css">
	.st0{fill:#FFFFFF;}
</style>
<path class="st0" d="M15.6,7.4c-0.1-0.1-0.2-0.1-0.4-0.1l-3.8,0C11.3,6.3,10.7,5.5,9.8,5C8.1,4,5.9,4.6,5,6.2C4.8,6.6,4.7,7,4.6,7.3
	V7.3l-3.9,0C0.3,7.3,0,7.6,0,8c0,0.3,0.1,0.5,0.4,0.6c0.1,0.1,0.2,0.1,0.4,0.1l3.9,0v0c0.2,1,0.8,1.9,1.7,2.4c1.7,1,3.8,0.4,4.8-1.3
	c0.2-0.3,0.3-0.7,0.4-1.1l3.8,0C15.7,8.7,16,8.4,16,8C16,7.7,15.9,7.5,15.6,7.4z M9.8,9C9.3,10,8,10.4,7,9.8C6,9.2,5.6,8,6.2,7
	c0.6-1,1.9-1.3,2.9-0.8C10.1,6.8,10.4,8,9.8,9z"/>
</svg>
