<svg id="Layer_1" data-name="Layer 1" xmlns="http://www.w3.org/2000/svg" viewBox="0 0 14.5 13.91"><title>move</title><path d="M15.5,11.91a.75.75,0,0,1-.19.54l-3.15,3.24a.71.71,0,0,1-1,0,.78.78,0,0,1,0-1.07l1.9-2H8.23a.76.76,0,0,1,0-1.51H13l-1.9-2a.78.78,0,0,1,0-1.07.71.71,0,0,1,1,0l3.15,3.24A.75.75,0,0,1,15.5,11.91Z" transform="translate(-1 -2)"/><path d="M10.08,13.93H7.82a2,2,0,1,1,0-4h2.26a2,2,0,0,1,.15-2.75,2.15,2.15,0,0,1,2.88,0L15,8.91V6.2A1.2,1.2,0,0,0,13.8,5H9.2A1.78,1.78,0,0,1,7.62,3.86l-.24-.72A1.78,1.78,0,0,0,5.8,2H2.2A1.2,1.2,0,0,0,1,3.2v9.6A1.2,1.2,0,0,0,2.2,14H10Z" transform="translate(-1 -2)"/></svg>