<?xml version="1.0" encoding="utf-8"?>
<!-- Generator: Adobe Illustrator 21.1.0, SVG Export Plug-In . SVG Version: 6.00 Build 0)  -->
<svg version="1.1" id="Layer_1" xmlns="http://www.w3.org/2000/svg" xmlns:xlink="http://www.w3.org/1999/xlink" x="0px" y="0px"
	 viewBox="0 0 16 16" style="enable-background:new 0 0 16 16;" xml:space="preserve">
<style type="text/css">
	.st0{display:none;fill:#66A19F;}
	.st1{fill:#FFFFFF;}
	.st2{fill:none;stroke:#FFFFFF;stroke-width:1.7008;stroke-linecap:round;stroke-miterlimit:10;}
	.st3{display:none;opacity:0.2;fill:#E94E47;enable-background:new    ;}
</style>
<rect x="-8" y="-134" class="st0" width="87" height="2382"/>
<g>
	<path class="st1" d="M8,3.1c2.7,0,4.9,2.2,4.9,4.9s-2.2,4.9-4.9,4.9S3.1,10.7,3.1,8S5.3,3.1,8,3.1 M8,2C4.7,2,2,4.7,2,8s2.7,6,6,6
		s6-2.7,6-6S11.3,2,8,2L8,2z"/>
</g>
<line class="st2" x1="8" y1="1" x2="8" y2="4.5"/>
<line class="st2" x1="8" y1="11.5" x2="8" y2="15"/>
<line class="st2" x1="1" y1="8" x2="4.5" y2="8"/>
<line class="st2" x1="11.5" y1="8" x2="15" y2="8"/>
<circle class="st1" cx="8" cy="8" r="1.2"/>
<rect y="0" class="st3" width="16" height="16"/>
</svg>
