<?xml version="1.0" encoding="utf-8"?>
<!-- Generator: Adobe Illustrator 21.1.0, SVG Export Plug-In . SVG Version: 6.00 Build 0)  -->
<svg version="1.1" id="Layer_1" xmlns="http://www.w3.org/2000/svg" xmlns:xlink="http://www.w3.org/1999/xlink" x="0px" y="0px"
	 viewBox="0 0 16 16" style="enable-background:new 0 0 16 16;" xml:space="preserve">
<style type="text/css">
	.st0{fill:#FFFFFF;}
</style>
<path class="st0" d="M1.8,5.5c-0.1,0-0.2,0-0.3-0.1C1.2,5.3,1,5.1,1,4.8v-3C1,1.3,1.3,1,1.8,1h3c0.3,0,0.6,0.2,0.7,0.5
	c0.1,0.3,0.1,0.6-0.2,0.8l-3,3C2.1,5.4,1.9,5.5,1.8,5.5 M2.5,2.5v0.4l0.4-0.4H2.5z"/>
<path class="st0" d="M14.3,5.5c-0.2,0-0.4-0.1-0.5-0.2l-3-3c-0.2-0.2-0.3-0.5-0.2-0.8S10.9,1,11.3,1h3C14.7,1,15,1.3,15,1.8v3
	c0,0.3-0.2,0.6-0.5,0.7C14.4,5.5,14.3,5.5,14.3,5.5 M13.1,2.5l0.4,0.4V2.5H13.1z"/>
<path class="st0" d="M14.3,15h-3c-0.3,0-0.6-0.2-0.7-0.5c-0.1-0.3-0.1-0.6,0.2-0.8l3-3c0.2-0.2,0.5-0.3,0.8-0.2
	c0.3,0.1,0.5,0.4,0.5,0.7v3C15,14.7,14.7,15,14.3,15"/>
<path class="st0" d="M4.8,15h-3C1.3,15,1,14.7,1,14.3v-3c0-0.3,0.2-0.6,0.5-0.7c0.3-0.1,0.6-0.1,0.8,0.2l3,3
	c0.2,0.2,0.3,0.5,0.2,0.8C5.3,14.8,5.1,15,4.8,15 M2.5,13.5h0.4l-0.4-0.4V13.5z"/>
<rect x="3.5" y="0.8" transform="matrix(0.7071 -0.7071 0.7071 0.7071 -1.7419 4.205)" class="st0" width="1.5" height="6.7"/>
<rect x="8.4" y="3.5" transform="matrix(0.7074 -0.7068 0.7068 0.7074 0.4794 9.5678)" class="st0" width="6.7" height="1.5"/>
<rect x="11" y="8.4" transform="matrix(0.7071 -0.7071 0.7071 0.7071 -4.8858 11.7957)" class="st0" width="1.5" height="6.7"/>
<rect x="0.8" y="11" transform="matrix(0.7074 -0.7068 0.7068 0.7074 -7.1076 6.4229)" class="st0" width="6.7" height="1.5"/>
</svg>
